<mxfile host="Electron" agent="Mozilla/5.0 (X11; Linux x86_64) AppleWebKit/537.36 (KHTML, like Gecko) draw.io/26.0.16 Chrome/132.0.6834.210 Electron/34.3.2 Safari/537.36" version="26.0.16">
  <diagram name="Page-1" id="apOVl8SDUlImBMhl18na">
    <mxGraphModel dx="1434" dy="907" grid="1" gridSize="10" guides="1" tooltips="1" connect="1" arrows="1" fold="1" page="1" pageScale="1" pageWidth="850" pageHeight="1100" math="0" shadow="0" adaptiveColors="auto">
      <root>
        <mxCell id="0" />
        <mxCell id="1" parent="0" />
        <mxCell id="rQh2p5IQfalsOT1BKILf-25" value="&lt;div&gt;Inicio&lt;/div&gt;" style="rounded=1;whiteSpace=wrap;html=1;glass=0;fontSize=14;" parent="1" vertex="1">
          <mxGeometry x="350" y="10" width="140" height="60" as="geometry" />
        </mxCell>
        <mxCell id="rQh2p5IQfalsOT1BKILf-26" value="" style="endArrow=classic;html=1;rounded=0;exitX=0.5;exitY=1;exitDx=0;exitDy=0;entryX=0.5;entryY=0;entryDx=0;entryDy=0;fontSize=14;" parent="1" source="rQh2p5IQfalsOT1BKILf-25" target="rQh2p5IQfalsOT1BKILf-28" edge="1">
          <mxGeometry width="50" height="50" relative="1" as="geometry">
            <mxPoint x="420" y="170" as="sourcePoint" />
            <mxPoint x="410" y="120" as="targetPoint" />
          </mxGeometry>
        </mxCell>
        <mxCell id="rQh2p5IQfalsOT1BKILf-27" style="edgeStyle=orthogonalEdgeStyle;rounded=0;orthogonalLoop=1;jettySize=auto;html=1;exitX=0.5;exitY=1;exitDx=0;exitDy=0;entryX=0.5;entryY=0;entryDx=0;entryDy=0;" parent="1" source="rQh2p5IQfalsOT1BKILf-28" target="rQh2p5IQfalsOT1BKILf-30" edge="1">
          <mxGeometry relative="1" as="geometry" />
        </mxCell>
        <mxCell id="rQh2p5IQfalsOT1BKILf-28" value="Inserte el radio del circulo" style="shape=parallelogram;perimeter=parallelogramPerimeter;whiteSpace=wrap;html=1;fixedSize=1;gradientColor=none;strokeColor=default;rounded=0;fontSize=14;" parent="1" vertex="1">
          <mxGeometry x="310" y="120" width="220" height="60" as="geometry" />
        </mxCell>
        <mxCell id="rQh2p5IQfalsOT1BKILf-29" style="edgeStyle=orthogonalEdgeStyle;rounded=0;orthogonalLoop=1;jettySize=auto;html=1;exitX=0.5;exitY=1;exitDx=0;exitDy=0;entryX=0.5;entryY=0;entryDx=0;entryDy=0;fontSize=14;" parent="1" source="rQh2p5IQfalsOT1BKILf-30" target="rQh2p5IQfalsOT1BKILf-32" edge="1">
          <mxGeometry relative="1" as="geometry" />
        </mxCell>
        <mxCell id="rQh2p5IQfalsOT1BKILf-30" value="area = 3.14 * (n ** 2)" style="rounded=0;whiteSpace=wrap;html=1;fontSize=14;" parent="1" vertex="1">
          <mxGeometry x="320" y="230" width="200" height="60" as="geometry" />
        </mxCell>
        <mxCell id="rQh2p5IQfalsOT1BKILf-31" style="edgeStyle=orthogonalEdgeStyle;rounded=0;orthogonalLoop=1;jettySize=auto;html=1;exitX=0.5;exitY=1;exitDx=0;exitDy=0;entryX=0.5;entryY=0;entryDx=0;entryDy=0;fontSize=14;" parent="1" source="rQh2p5IQfalsOT1BKILf-32" target="rQh2p5IQfalsOT1BKILf-33" edge="1">
          <mxGeometry relative="1" as="geometry" />
        </mxCell>
        <mxCell id="rQh2p5IQfalsOT1BKILf-32" value="area" style="shape=parallelogram;perimeter=parallelogramPerimeter;whiteSpace=wrap;html=1;fixedSize=1;fontSize=14;" parent="1" vertex="1">
          <mxGeometry x="360" y="340" width="120" height="60" as="geometry" />
        </mxCell>
        <mxCell id="rQh2p5IQfalsOT1BKILf-33" value="Fin" style="rounded=1;whiteSpace=wrap;html=1;fontSize=14;" parent="1" vertex="1">
          <mxGeometry x="360" y="450" width="120" height="60" as="geometry" />
        </mxCell>
      </root>
    </mxGraphModel>
  </diagram>
</mxfile>
